<svg width="158" height="25" viewBox="0 0 158 25" fill="none" xmlns="http://www.w3.org/2000/svg">
<path d="M60.3149 21.3684C59.157 21.3684 58.0956 21.1667 57.1307 20.7631C56.1833 20.3421 55.3675 19.7456 54.6833 18.9737C53.9991 18.2017 53.464 17.2631 53.078 16.1579C52.7096 15.0526 52.5254 13.7982 52.5254 12.3947C52.5254 10.9912 52.7096 9.7456 53.078 8.65788C53.464 7.55261 53.9991 6.63156 54.6833 5.89472C55.3675 5.14033 56.1833 4.57016 57.1307 4.18419C58.0956 3.78068 59.157 3.57893 60.3149 3.57893C61.4728 3.57893 62.5254 3.78068 63.4728 4.18419C64.4377 4.57016 65.2622 5.14033 65.9464 5.89472C66.6307 6.6491 67.157 7.57893 67.5254 8.68419C67.9114 9.77191 68.1043 11.0088 68.1043 12.3947C68.1043 13.7982 67.9114 15.0526 67.5254 16.1579C67.157 17.2631 66.6307 18.2017 65.9464 18.9737C65.2622 19.7456 64.4377 20.3421 63.4728 20.7631C62.5254 21.1667 61.4728 21.3684 60.3149 21.3684ZM60.3149 18.0263C61.4903 18.0263 62.4201 17.5263 63.1043 16.5263C63.7885 15.5088 64.1307 14.1316 64.1307 12.3947C64.1307 10.6754 63.7885 9.33332 63.1043 8.3684C62.4201 7.40349 61.4903 6.92104 60.3149 6.92104C59.1394 6.92104 58.2096 7.40349 57.5254 8.3684C56.8412 9.33332 56.4991 10.6754 56.4991 12.3947C56.4991 14.1316 56.8412 15.5088 57.5254 16.5263C58.2096 17.5263 59.1394 18.0263 60.3149 18.0263Z" fill="#131313"/>
<path d="M77.8568 21.3684C77.2779 21.3684 76.6901 21.2281 76.0936 20.9474C75.5147 20.6491 74.9708 20.2193 74.4621 19.6579H74.3568L74.041 21.0526H71.0147V2.60524H74.8831V7.13156L74.7779 9.13156C75.2866 8.67542 75.8305 8.32454 76.4094 8.07893C77.0059 7.81577 77.6112 7.68419 78.2252 7.68419C79.0147 7.68419 79.7252 7.84209 80.3568 8.15788C80.9884 8.47367 81.5235 8.92103 81.9621 9.49998C82.4182 10.0614 82.7603 10.7544 82.9884 11.5789C83.234 12.3859 83.3568 13.2895 83.3568 14.2895C83.3568 15.4123 83.1989 16.4123 82.8831 17.2895C82.5849 18.1666 82.1726 18.9123 81.6463 19.5263C81.1375 20.1228 80.5498 20.5789 79.8831 20.8947C79.234 21.2105 78.5586 21.3684 77.8568 21.3684ZM76.9621 18.2105C77.6287 18.2105 78.1989 17.9123 78.6726 17.3158C79.1463 16.7017 79.3831 15.7193 79.3831 14.3684C79.3831 12.0175 78.6287 10.8421 77.12 10.8421C76.348 10.8421 75.6024 11.2368 74.8831 12.0263V17.3684C75.234 17.6842 75.5849 17.9035 75.9358 18.0263C76.2866 18.1491 76.6287 18.2105 76.9621 18.2105Z" fill="#131313"/>
<path d="M88.8944 21.0526L84.4997 7.99998H88.3944L90.0786 14.1579C90.2541 14.807 90.4207 15.4737 90.5786 16.1579C90.7541 16.8245 90.9295 17.5 91.105 18.1842H91.2102C91.3681 17.5 91.526 16.8245 91.6839 16.1579C91.8593 15.4737 92.0348 14.807 92.2102 14.1579L93.9207 7.99998H97.6313L93.3681 21.0526H88.8944Z" fill="#131313"/>
<path d="M99.6691 21.0526V7.99998H103.538V21.0526H99.6691ZM101.59 6.07893C100.941 6.07893 100.406 5.89472 99.9849 5.5263C99.5638 5.14033 99.3533 4.6491 99.3533 4.05261C99.3533 3.45612 99.5638 2.97367 99.9849 2.60524C100.406 2.23682 100.941 2.05261 101.59 2.05261C102.257 2.05261 102.792 2.23682 103.195 2.60524C103.616 2.97367 103.827 3.45612 103.827 4.05261C103.827 4.6491 103.616 5.14033 103.195 5.5263C102.792 5.89472 102.257 6.07893 101.59 6.07893Z" fill="#131313"/>
<path d="M109.179 21.3684C108.512 21.3684 107.951 21.1403 107.495 20.6842C107.056 20.2105 106.837 19.6316 106.837 18.9473C106.837 18.2456 107.056 17.6666 107.495 17.2105C107.951 16.7368 108.512 16.5 109.179 16.5C109.845 16.5 110.398 16.7368 110.837 17.2105C111.293 17.6666 111.521 18.2456 111.521 18.9473C111.521 19.6316 111.293 20.2105 110.837 20.6842C110.398 21.1403 109.845 21.3684 109.179 21.3684Z" fill="#131313"/>
<path d="M118.384 21.3684C117.717 21.3684 117.156 21.2631 116.7 21.0526C116.244 20.8421 115.875 20.5526 115.595 20.1842C115.332 19.7982 115.139 19.3421 115.016 18.8158C114.893 18.2719 114.832 17.6666 114.832 17V2.60524H118.7V17.1579C118.7 17.5614 118.77 17.8421 118.91 18C119.068 18.1579 119.226 18.2368 119.384 18.2368C119.472 18.2368 119.542 18.2368 119.595 18.2368C119.665 18.2368 119.753 18.2193 119.858 18.1842L120.332 21.0526C120.121 21.1403 119.849 21.2105 119.516 21.2631C119.2 21.3333 118.823 21.3684 118.384 21.3684Z" fill="#131313"/>
<path d="M122.361 21.0526V7.99998H126.23V21.0526H122.361ZM124.282 6.07893C123.633 6.07893 123.098 5.89472 122.677 5.5263C122.256 5.14033 122.046 4.6491 122.046 4.05261C122.046 3.45612 122.256 2.97367 122.677 2.60524C123.098 2.23682 123.633 2.05261 124.282 2.05261C124.949 2.05261 125.484 2.23682 125.888 2.60524C126.309 2.97367 126.519 3.45612 126.519 4.05261C126.519 4.6491 126.309 5.14033 125.888 5.5263C125.484 5.89472 124.949 6.07893 124.282 6.07893Z" fill="#131313"/>
<path d="M129.634 21.0526V7.99998H132.792L133.055 9.65788H133.16C133.722 9.13156 134.336 8.67542 135.003 8.28946C135.669 7.88595 136.45 7.68419 137.345 7.68419C138.766 7.68419 139.792 8.14911 140.424 9.07893C141.073 10.0088 141.397 11.2982 141.397 12.9473V21.0526H137.529V13.4474C137.529 12.5 137.397 11.8509 137.134 11.5C136.889 11.1491 136.485 10.9737 135.924 10.9737C135.432 10.9737 135.011 11.0877 134.66 11.3158C134.31 11.5263 133.924 11.8333 133.503 12.2368V21.0526H129.634Z" fill="#131313"/>
<path d="M144.694 21.0526V2.60524H148.457V13.1842H148.562L152.694 7.99998H156.904L152.325 13.3684L157.246 21.0526H153.062L150.115 15.9737L148.457 17.8421V21.0526H144.694Z" fill="#131313"/>
<path d="M22.0332 5.14706L13.2199 0V2.20588H8.07883C3.61702 2.20588 0 5.82711 0 10.2941C0 14.7611 3.61701 18.3824 8.07883 18.3824H20.5643C24.7785 18.3824 28.2391 15.1518 28.6102 11.0294H25.6533C25.2969 13.5237 23.1543 15.4412 20.5643 15.4412H8.07883C5.23949 15.4412 2.93776 13.1368 2.93776 10.2941C2.93776 7.45148 5.23949 5.14706 8.07883 5.14706L22.0332 5.14706Z" fill="#131313"/>
<path d="M16.8921 19.8529H30.0791C32.9184 19.8529 35.2201 17.5485 35.2201 14.7059C35.2201 11.8632 32.9184 9.55882 30.0791 9.55882H17.5936C15.0036 9.55882 12.861 11.4763 12.5046 13.9706H9.54771C9.91877 9.84816 13.3794 6.61765 17.5936 6.61765H30.0791C34.5409 6.61765 38.1579 10.2389 38.1579 14.7059C38.1579 19.1729 34.5409 22.7941 30.0791 22.7941H24.9709V25L16.8921 19.8529Z" fill="#131313"/>
</svg>
