<svg width="73" height="66" viewBox="0 0 73 66" fill="none" xmlns="http://www.w3.org/2000/svg">
<path d="M9 5C6.79083 5 5 6.79083 5 9V40C5 42.2091 6.79083 44 9 44H12.0001L12 56L18.9282 44H44C46.2092 44 48 42.2091 48 40V9C48 6.79083 46.2092 5 44 5H9Z" fill="#E4F0FD"/>
<path d="M69 15C71.2092 15 73 16.7908 73 19V50C73 52.2091 71.2092 54 69 54H65.9999L66 66L59.0718 54H34C31.7908 54 30 52.2091 30 50V19C30 16.7908 31.7908 15 34 15H69Z" fill="#E4F0FD"/>
<path d="M8.00012 39L8.00013 38H7.00012H4C2.34313 38 1 36.6568 1 35V4C1 2.34312 2.34312 1 4 1H39C40.6569 1 42 2.34312 42 4V35C42 36.6568 40.6569 38 39 38H13.9282H13.3509L13.0622 38.5L8.00004 47.2679L8.00012 39Z" stroke="#131313" stroke-width="2"/>
<path d="M59.9999 49L59.9999 48H60.9999H64C65.6569 48 67 46.6568 67 45V14C67 12.3431 65.6569 11 64 11H29C27.3431 11 26 12.3431 26 14V45C26 46.6568 27.3431 48 29 48H54.0718H54.6491L54.9378 48.5L60 57.2679L59.9999 49Z" stroke="#131313" stroke-width="2"/>
</svg>
