<svg width="14" height="16" viewBox="0 0 14 16" fill="none" xmlns="http://www.w3.org/2000/svg">
<path d="M13.0475 6.59243H3.05324L7.41956 1.71244C7.76851 1.32244 7.76851 0.682443 7.41956 0.292443C7.33679 0.19974 7.23847 0.126192 7.13023 0.0760111C7.02199 0.0258297 6.90595 0 6.78877 0C6.67159 0 6.55556 0.0258297 6.44732 0.0760111C6.33908 0.126192 6.24076 0.19974 6.15798 0.292443L0.261661 6.88243C0.178716 6.97495 0.11291 7.08484 0.0680105 7.20581C0.0231113 7.32678 0 7.45646 0 7.58743C0 7.7184 0.0231113 7.84808 0.0680105 7.96906C0.11291 8.09003 0.178716 8.19992 0.261661 8.29243L6.15798 14.8824C6.24082 14.975 6.33916 15.0484 6.44739 15.0985C6.55562 15.1487 6.67162 15.1744 6.78877 15.1744C6.90592 15.1744 7.02192 15.1487 7.13015 15.0985C7.23838 15.0484 7.33673 14.975 7.41956 14.8824C7.5024 14.7898 7.56811 14.6799 7.61294 14.559C7.65777 14.438 7.68084 14.3084 7.68084 14.1774C7.68084 14.0465 7.65777 13.9168 7.61294 13.7959C7.56811 13.6749 7.5024 13.565 7.41956 13.4724L3.05324 8.59243H13.0475C13.5396 8.59243 13.9422 8.14243 13.9422 7.59243C13.9422 7.04243 13.5396 6.59243 13.0475 6.59243Z" fill="#131313"/>
</svg>
