<svg width="15" height="16" viewBox="0 0 15 16" fill="none" xmlns="http://www.w3.org/2000/svg">
<path d="M1.31576 6.59243H11.31L6.94369 1.71244C6.59474 1.32244 6.59474 0.682443 6.94369 0.292443C7.02646 0.19974 7.12478 0.126192 7.23302 0.0760111C7.34126 0.0258297 7.4573 0 7.57448 0C7.69166 0 7.80769 0.0258297 7.91593 0.0760111C8.02417 0.126192 8.1225 0.19974 8.20527 0.292443L14.1016 6.88243C14.1846 6.97495 14.2504 7.08484 14.2953 7.20581C14.3402 7.32678 14.3633 7.45646 14.3633 7.58743C14.3633 7.7184 14.3402 7.84808 14.2953 7.96906C14.2504 8.09003 14.1846 8.19992 14.1016 8.29243L8.20527 14.8824C8.12244 14.975 8.02409 15.0484 7.91586 15.0985C7.80763 15.1487 7.69163 15.1744 7.57448 15.1744C7.45733 15.1744 7.34133 15.1487 7.2331 15.0985C7.12487 15.0484 7.02652 14.975 6.94369 14.8824C6.86085 14.7898 6.79514 14.6799 6.75031 14.559C6.70548 14.438 6.6824 14.3084 6.6824 14.1774C6.6824 14.0465 6.70548 13.9168 6.75031 13.7959C6.79514 13.6749 6.86085 13.565 6.94369 13.4724L11.31 8.59243H1.31576C0.823654 8.59243 0.421021 8.14243 0.421021 7.59243C0.421021 7.04243 0.823654 6.59243 1.31576 6.59243Z" fill="#131313"/>
</svg>
